<svg xmlns="http://www.w3.org/2000/svg" viewBox="0 0 22 22" xmlns:xlink="http://www.w3.org/1999/xlink"><defs><path id="a" d="M11 22c6.075 0 11-4.925 11-11S17.075 0 11 0 0 4.925 0 11s4.925 11 11 11zm0-1c5.523 0 10-4.477 10-10S16.523 1 11 1 1 5.477 1 11s4.477 10 10 10zM5.696 5.698l3.536 7.07 7.07 3.536-3.534-7.072-7.072-3.534zm1.625 1.66l4.66 2.673-1.942 1.977L7.32 7.36z"/></defs><g fill="none" fill-rule="evenodd" transform="rotate(-134 11 11)"><use fill="#000" xlink:href="#a"/><use xlink:href="#a"/></g></svg>