<?xml version="1.0" ?><svg height="22px" version="1.1" viewBox="0 0 22 22" width="22px" xmlns="http://www.w3.org/2000/svg" xmlns:sketch="http://www.bohemiancoding.com/sketch/ns" xmlns:xlink="http://www.w3.org/1999/xlink"><title/><defs><path d="M11,22 C17.0751325,22 22,17.0751325 22,11 C22,4.92486745 17.0751325,0 11,0 C4.92486745,0 0,4.92486745 0,11 C0,17.0751325 4.92486745,22 11,22 L11,22 Z M11,21 C16.5228478,21 21,16.5228478 21,11 C21,5.47715225 16.5228478,1 11,1 C5.47715225,1 1,5.47715225 1,11 C1,16.5228478 5.47715225,21 11,21 L11,21 Z M5.69559185,5.6975623 L9.23181625,12.7679396 L16.3021935,16.304164 L12.7676954,9.2320604 L5.69559185,5.6975623 L5.69559185,5.6975623 Z M7.32147215,7.3591919 L11.9771118,10.0310669 L10.034607,12.0039673 L7.32147215,7.3591919 L7.32147215,7.3591919 Z" id="path-1"/></defs><g transform= "rotate(-134, 11, 11)" fill="none" fill-rule="evenodd" id="miu" stroke="none" stroke-width="1"><g id="circle_compass_safari_web_archive_outline_stroke"><use fill="#000000" fill-rule="evenodd" xlink:href="#path-1"/><use fill="none" xlink:href="#path-1"/></g></g></svg>